<svg width="54" height="55" viewBox="0 0 54 55" fill="none" xmlns="http://www.w3.org/2000/svg">
<circle cx="27" cy="27.5" r="27" fill="url(#paint0_linear_201_64)"/>
<path d="M12.6875 31.4531C11.7555 31.4531 10.991 32.2107 11.0864 33.1378C11.4717 36.8824 13.1331 40.4013 15.819 43.0872C18.9046 46.1728 23.0895 47.9062 27.4531 47.9062C31.8168 47.9062 36.0017 46.1728 39.0872 43.0872C41.7731 40.4013 43.4345 36.8824 43.8198 33.1378C43.9152 32.2107 43.1507 31.4531 42.2188 31.4531L27.4531 31.4531L12.6875 31.4531Z" fill="#363447"/>
<path d="M23.4981 21.1719C24.0342 21.1719 24.4775 20.734 24.3831 20.2063C24.1871 19.1104 23.6604 18.0918 22.8624 17.2938C21.8339 16.2653 20.4389 15.6875 18.9844 15.6875C17.5298 15.6875 16.1349 16.2653 15.1063 17.2938C14.3083 18.0918 13.7817 19.1104 13.5857 20.2063C13.4913 20.734 13.9346 21.1719 14.4706 21.1719C15.0067 21.1719 15.4284 20.7294 15.5734 20.2133C15.7363 19.6337 16.0458 19.0998 16.479 18.6665C17.1435 18.0021 18.0447 17.6288 18.9844 17.6288C19.9241 17.6288 20.8253 18.0021 21.4897 18.6665C21.923 19.0998 22.2324 19.6337 22.3954 20.2133C22.5404 20.7294 22.962 21.1719 23.4981 21.1719Z" fill="#363447"/>
<path d="M39.5294 21.1719C40.0654 21.1719 40.5087 20.734 40.4143 20.2063C40.2183 19.1104 39.6917 18.0918 38.8937 17.2938C37.8651 16.2653 36.4702 15.6875 35.0156 15.6875C33.5611 15.6875 32.1661 16.2653 31.1376 17.2938C30.3396 18.0918 29.8129 19.1104 29.6169 20.2063C29.5225 20.734 29.9658 21.1719 30.5019 21.1719C31.038 21.1719 31.4596 20.7294 31.6046 20.2133C31.7676 19.6337 32.077 19.0998 32.5103 18.6665C33.1747 18.0021 34.0759 17.6288 35.0156 17.6288C35.9553 17.6288 36.8565 18.0021 37.521 18.6665C37.9542 19.0998 38.2637 19.6337 38.4266 20.2133C38.5716 20.7294 38.9933 21.1719 39.5294 21.1719Z" fill="#363447"/>
<defs>
<linearGradient id="paint0_linear_201_64" x1="27" y1="0.5" x2="27" y2="54.5" gradientUnits="userSpaceOnUse">
<stop stop-color="#81FBB8"/>
<stop offset="1" stop-color="#28C76F"/>
</linearGradient>
</defs>
</svg>
